<svg xmlns="http://www.w3.org/2000/svg" viewBox="0 0 64 64" role="img" aria-hidden="true">
  <path fill="#4285F4" d="M54.1 33.24c0-1.45-.13-2.83-.39-4.16H32v7.87h12.43a10.63 10.63 0 0 1-4.61 6.97v5.78h7.45c4.37-4.02 6.83-9.95 6.83-16.46Z"/>
  <path fill="#34A853" d="M32 55.75c6.2 0 11.4-2.06 15.2-5.57l-7.45-5.78c-2.06 1.39-4.69 2.2-7.75 2.2-5.96 0-11-4.03-12.8-9.45h-7.7v5.95A23.75 23.75 0 0 0 32 55.75Z"/>
  <path fill="#FBBC05" d="M19.2 37.15a14.3 14.3 0 0 1 0-9.08v-5.95h-7.7a23.74 23.74 0 0 0 0 21l7.7-5.97Z"/>
  <path fill="#EA4335" d="M32 18.6c3.38 0 6.41 1.16 8.8 3.43l6.56-6.56C43.38 11.76 38.19 9.9 32 9.9a23.75 23.75 0 0 0-20.5 12.22l7.7 5.95c1.8-5.42 6.84-9.47 12.8-9.47Z"/>
</svg>
