<svg xmlns="http://www.w3.org/2000/svg" viewBox="0 0 64 64" role="img" aria-hidden="true">
  <path fill="#36C5F0" d="M18.8 39.6a6.8 6.8 0 1 1 0 13.6A6.8 6.8 0 0 1 18.8 39.6Zm0-24.8a6.8 6.8 0 0 1 6.8 6.8v17H18.8a6.8 6.8 0 1 1 0-13.6h6.8v-3.4a6.8 6.8 0 0 0-6.8-6.8Z"/>
  <path fill="#2EB67D" d="M24.4 18.8a6.8 6.8 0 1 1 13.6 0A6.8 6.8 0 0 1 24.4 18.8Zm24.8 0a6.8 6.8 0 0 1-6.8 6.8h-17v-6.8a6.8 6.8 0 1 1 13.6 0v6.8h3.4a6.8 6.8 0 0 0 6.8-6.8Z"/>
  <path fill="#ECB22E" d="M45.2 24.4a6.8 6.8 0 1 1 0 13.6A6.8 6.8 0 0 1 45.2 24.4Zm0 24.8a6.8 6.8 0 0 1-6.8-6.8v-17h6.8a6.8 6.8 0 1 1 0 13.6h-6.8v3.4a6.8 6.8 0 0 0 6.8 6.8Z"/>
  <path fill="#E01E5A" d="M39.6 45.2a6.8 6.8 0 1 1-13.6 0A6.8 6.8 0 0 1 39.6 45.2Zm-24.8 0a6.8 6.8 0 0 1 6.8-6.8h17v6.8a6.8 6.8 0 1 1-13.6 0v-6.8h-3.4a6.8 6.8 0 0 0-6.8 6.8Z"/>
</svg>
